<svg xmlns="http://www.w3.org/2000/svg" width="1430.07" height="1043.88" viewBox="0 0 1430.07 1043.88"><title>Asset 4</title><g id="Layer_2" data-name="Layer 2"><g id="Layer_1-2" data-name="Layer 1"><path d="M64,635.84a131.21,131.21,0,0,1-46.66-46.66,126.66,126.66,0,0,1,0-128.08A126.82,126.82,0,0,1,64.5,414.9a129.93,129.93,0,0,1,27.1-11.66,28.35,28.35,0,0,1,36.48,27.15h0a27.89,27.89,0,0,1-19.95,27,68.18,68.18,0,0,0-29.91,17.92q-20.58,20.58-20.58,49.86t20.58,50.31q20.58,21.06,49.86,21t49.86-21q20.58-21,20.58-50.31V28.29A28.29,28.29,0,0,1,226.82,0H227a28.29,28.29,0,0,1,28.29,28.29V525.14a125.69,125.69,0,0,1-16.92,64,127.86,127.86,0,0,1-46.2,46.66,123.15,123.15,0,0,1-64,17.38A123.07,123.07,0,0,1,64,635.84Z" style="fill:#de333f"/><path d="M375.09,1015.44a28.29,28.29,0,0,1,28.29-28.29h62.29q29.27,0,50.32-21t21-50.31V523.31Q537,494,516,473t-50.32-21q-29.29,0-49.86,21t-20.58,50.31q0,30.19,20.58,50.78A68.18,68.18,0,0,0,445.71,592a27.89,27.89,0,0,1,19.95,27h0a28.36,28.36,0,0,1-36.47,27.15,129.57,129.57,0,0,1-27.11-11.66A128.09,128.09,0,1,1,530.16,412.61a130.56,130.56,0,0,1,47.12,46.66,123.24,123.24,0,0,1,17.38,64V915.8a123.24,123.24,0,0,1-17.38,64,130.6,130.6,0,0,1-47.12,46.66,125.69,125.69,0,0,1-64.5,17.38H403.37a28.29,28.29,0,0,1-28.29-28.29Z" style="fill:#de333f"/><path d="M713.58,523.31a123.13,123.13,0,0,1,17.38-64,131.43,131.43,0,0,1,46.66-46.66,123.21,123.21,0,0,1,64-17.38,128.26,128.26,0,0,1,64.5,16.92,128,128,0,0,1,0,222.32A128.42,128.42,0,0,1,878,646.38a28.4,28.4,0,0,1-36.38-27.17V619a27.9,27.9,0,0,1,20-27A70.23,70.23,0,0,0,892,574.09q21-20.58,21-50.78Q913,494,892,473t-50.32-21q-29.29,0-49.86,21t-20.58,50.31V1015.6a28.29,28.29,0,0,1-28.29,28.29h-1.06a28.29,28.29,0,0,1-28.29-28.29Z" style="fill:#de333f"/><path d="M1428.15,435.53,1349.72,632.7a26.75,26.75,0,0,1-24.86,16.87h-21.14a26.75,26.75,0,0,1-25-17.11l-40-103.65-40.9,103.81a26.75,26.75,0,0,1-24.89,16.95h-20.35a26.75,26.75,0,0,1-24.86-16.87l-78.44-197.17a26.75,26.75,0,0,1,24.86-36.64h0A26.75,26.75,0,0,1,1099,415.82l63.76,161.48,63.76-161.48a26.75,26.75,0,0,1,24.89-16.93h0a26.75,26.75,0,0,1,24.87,36.62l-5.21,13.13a21.57,21.57,0,0,0-.05,15.78l43.58,112,63.75-160.6a26.75,26.75,0,0,1,24.87-16.88h0A26.75,26.75,0,0,1,1428.15,435.53Z" style="fill:#de333f"/></g></g></svg>