<svg xmlns="http://www.w3.org/2000/svg" xmlns:xlink="http://www.w3.org/1999/xlink" viewBox="0 0 814.69 594.68"><defs><style>.cls-1{fill:url(#linear-gradient);}.cls-2{fill:url(#linear-gradient-2);}.cls-3{fill:url(#linear-gradient-3);}.cls-4{fill:url(#linear-gradient-4);}</style><linearGradient id="linear-gradient" x1="72.71" x2="72.71" y2="372.13" gradientUnits="userSpaceOnUse"><stop offset="0" stop-color="#2b5876"/><stop offset="1" stop-color="#4e4376"/></linearGradient><linearGradient id="linear-gradient-2" x1="265.54" y1="225.15" x2="265.54" y2="594.68" xlink:href="#linear-gradient"/><linearGradient id="linear-gradient-3" x1="479.74" y1="225.15" x2="479.74" y2="594.68" xlink:href="#linear-gradient"/><linearGradient id="linear-gradient-4" x1="705.67" y1="227.24" x2="705.67" y2="370.05" xlink:href="#linear-gradient"/></defs><title>Asset 1</title><g id="Layer_2" data-name="Layer 2"><g id="Layer_1-2" data-name="Layer 1"><path class="cls-1" d="M36.48,362.23A74.75,74.75,0,0,1,9.9,335.65a72.16,72.16,0,0,1,0-73,72.25,72.25,0,0,1,26.84-26.32,74,74,0,0,1,15.44-6.64A16.15,16.15,0,0,1,73,245.18h0A15.89,15.89,0,0,1,61.6,260.55a38.84,38.84,0,0,0-17,10.21,38.69,38.69,0,0,0-11.73,28.4,39.53,39.53,0,0,0,11.73,28.66,38.23,38.23,0,0,0,28.4,12,38.24,38.24,0,0,0,28.41-12,39.53,39.53,0,0,0,11.73-28.66V16.11A16.11,16.11,0,0,1,129.21,0h.08a16.11,16.11,0,0,1,16.11,16.11V299.16a71.6,71.6,0,0,1-9.64,36.48,72.84,72.84,0,0,1-26.32,26.58A70.16,70.16,0,0,1,73,372.13,70.11,70.11,0,0,1,36.48,362.23Z"/><path class="cls-2" d="M213.68,578.48a16.11,16.11,0,0,1,16.11-16.11h35.48a40.93,40.93,0,0,0,40.65-40.65V298.12a40.93,40.93,0,0,0-40.65-40.65,38.26,38.26,0,0,0-28.4,12,39.56,39.56,0,0,0-11.73,28.66q0,17.2,11.73,28.93a38.84,38.84,0,0,0,17,10.21,15.89,15.89,0,0,1,11.36,15.37h0a16.15,16.15,0,0,1-20.78,15.47,73.81,73.81,0,0,1-15.44-6.64,73,73,0,1,1,73-126.39,74.38,74.38,0,0,1,26.84,26.58,70.21,70.21,0,0,1,9.9,36.48V521.71a70.21,70.21,0,0,1-9.9,36.48A74.4,74.4,0,0,1,302,584.78a71.61,71.61,0,0,1-36.74,9.9H229.79a16.11,16.11,0,0,1-16.11-16.11Z"/><path class="cls-3" d="M406.51,298.12a70.15,70.15,0,0,1,9.9-36.48A74.87,74.87,0,0,1,443,235.06a70.19,70.19,0,0,1,36.48-9.9,73.07,73.07,0,0,1,36.74,9.64,72.91,72.91,0,0,1,0,126.65,73.16,73.16,0,0,1-16,6.78,16.18,16.18,0,0,1-20.73-15.48v-.12a15.89,15.89,0,0,1,11.39-15.38A40,40,0,0,0,508.15,327q12-11.73,12-28.93a40.93,40.93,0,0,0-40.65-40.65,38.26,38.26,0,0,0-28.4,12,39.56,39.56,0,0,0-11.73,28.66V578.56a16.11,16.11,0,0,1-16.11,16.11h-.61a16.11,16.11,0,0,1-16.11-16.11Z"/><path class="cls-4" d="M813.59,248.11,768.91,360.44A15.24,15.24,0,0,1,754.75,370h-12a15.24,15.24,0,0,1-14.22-9.75l-22.81-59-23.3,59.14A15.24,15.24,0,0,1,668.19,370h-11.6a15.24,15.24,0,0,1-14.16-9.61L597.75,248.11a15.24,15.24,0,0,1,14.16-20.88h0a15.24,15.24,0,0,1,14.18,9.64l36.32,92,36.32-92a15.24,15.24,0,0,1,14.18-9.64h0A15.24,15.24,0,0,1,727.1,248.1l-3,7.48a12.29,12.29,0,0,0,0,9l24.83,63.78,36.31-91.49a15.24,15.24,0,0,1,14.17-9.62h0A15.24,15.24,0,0,1,813.59,248.11Z"/></g></g></svg>