<svg xmlns="http://www.w3.org/2000/svg" viewBox="0 0 291.65 75.24"><title>Asset 1</title><g id="Layer_2" data-name="Layer 2"><g id="Layer_1-2" data-name="Layer 1"><path d="M59.22,37.67A41.8,41.8,0,0,1,56.3,54a30.07,30.07,0,0,1-8.22,11.45,34.79,34.79,0,0,1-12.7,6.76,55.52,55.52,0,0,1-16.23,2.24q-4.38,0-9.63-.36a62,62,0,0,1-7.18-.9A2.9,2.9,0,0,1,0,70.3V5.05A2.9,2.9,0,0,1,2.34,2.2a62,62,0,0,1,7.18-.9Q14.77.94,19.15.94A55.86,55.86,0,0,1,35.38,3.17a35,35,0,0,1,12.7,6.77A30.07,30.07,0,0,1,56.3,21.39,41.78,41.78,0,0,1,59.22,37.67ZM20,65.56q14.37,0,21.44-7.33T48.5,37.67q0-13.22-7.08-20.55T20,9.78c-2.84,0-5.05,0-6.61.11l-.52,0a2.9,2.9,0,0,0-2.76,2.9V62.54a2.9,2.9,0,0,0,2.76,2.9l.52,0C14.93,65.53,17.14,65.56,20,65.56Z" style="fill:#d85345"/><path d="M121.12,38.3h4.3a2.9,2.9,0,0,1,2.9,2.9V69.82a2.91,2.91,0,0,1-2.22,2.82l-1.37.31c-1.56.35-3.37.7-5.41,1s-4.29.64-6.72.89-4.89.36-7.38.36a37.11,37.11,0,0,1-13.85-2.49,29.61,29.61,0,0,1-10.72-7.29A32.92,32.92,0,0,1,73.73,53.7a48.35,48.35,0,0,1-2.44-16,43.78,43.78,0,0,1,2.76-16.08A34.61,34.61,0,0,1,81.49,9.78a31.26,31.26,0,0,1,11-7.28A36.08,36.08,0,0,1,105.94,0a54.78,54.78,0,0,1,8.69.62,51.52,51.52,0,0,1,6.51,1.46,31.64,31.64,0,0,1,4.42,1.67h0A2.86,2.86,0,0,1,127,7.35l-1.15,3A2.89,2.89,0,0,1,122,12a32.56,32.56,0,0,0-5.34-1.83,40.18,40.18,0,0,0-10.2-1.3,25,25,0,0,0-10,2,21,21,0,0,0-7.7,5.73,26.86,26.86,0,0,0-4.94,9.1,38.24,38.24,0,0,0-1.77,12,42.69,42.69,0,0,0,1.51,11.76,25.14,25.14,0,0,0,4.58,9.11,20.75,20.75,0,0,0,7.59,5.88,25.33,25.33,0,0,0,10.67,2.08A49.31,49.31,0,0,0,113.8,66c.77-.11,1.45-.23,2.06-.34a2.89,2.89,0,0,0,2.36-2.85V41.2A2.9,2.9,0,0,1,121.12,38.3Z" style="fill:#d85345"/><path d="M163.29.94q15.19,0,23.36,5.77t8.17,17.23a23.38,23.38,0,0,1-2.24,10.66,18.27,18.27,0,0,1-6.45,7.18,29.41,29.41,0,0,1-10.25,4A67.82,67.82,0,0,1,162.25,47h-5.12a2.9,2.9,0,0,0-2.9,2.9v21a2.89,2.89,0,0,1-2.89,2.9H147a2.89,2.89,0,0,1-2.89-2.9V5.05a2.9,2.9,0,0,1,2.34-2.85,62,62,0,0,1,7.18-.9Q158.91.94,163.29.94Zm.83,8.84c-2.8,0-5.17.05-7.11.13a2.9,2.9,0,0,0-2.78,2.9V35.5a2.9,2.9,0,0,0,2.9,2.9h4.7a59,59,0,0,0,9.37-.67,21.3,21.3,0,0,0,7-2.29A11.27,11.27,0,0,0,182.64,31a14.66,14.66,0,0,0,1.57-7.18A13.23,13.23,0,0,0,182.59,17a12.15,12.15,0,0,0-4.37-4.32,18.86,18.86,0,0,0-6.4-2.23A45.13,45.13,0,0,0,164.12,9.78Z" style="fill:#d85345"/><path d="M249.6,33.43a2.89,2.89,0,0,0-5.5,0q-3,9.1-6.09,17.25Q233.89,61.59,229.78,72a2.89,2.89,0,0,1-2.69,1.83H221a2.91,2.91,0,0,1-2.75-2q-5.1-15.06-9.06-31.66Q205.36,23.94,202,5.08a2.9,2.9,0,0,1,2.85-3.41h4.74A2.89,2.89,0,0,1,212.42,4Q213.68,11,215,17.9q1.56,8.12,3.22,15.77t3.33,14.62c.35,1.45.7,2.87,1.05,4.25a2.9,2.9,0,0,0,5.53.31q2.75-7.4,5.7-15.64,4.33-12.09,8.14-24.93a2.89,2.89,0,0,1,2.77-2.08h4.42a2.89,2.89,0,0,1,2.77,2.08q3.81,12.84,8.23,24.93,3,8.19,5.77,15.55a2.89,2.89,0,0,0,5.52-.31c.33-1.32.66-2.67,1-4.06,1.1-4.64,2.2-9.52,3.27-14.62S277.87,23.4,278.91,18Q280.25,11,281.5,4a2.88,2.88,0,0,1,2.84-2.37h4.41a2.91,2.91,0,0,1,2.86,3.42q-3.48,18.86-7.34,35.08-4,16.61-9,31.64a2.9,2.9,0,0,1-2.75,2H266.5A2.92,2.92,0,0,1,263.81,72q-4.2-10.38-8.21-21.3Q252.6,42.55,249.6,33.43Z" style="fill:#d85345"/></g></g></svg>