<svg xmlns="http://www.w3.org/2000/svg" xmlns:xlink="http://www.w3.org/1999/xlink" viewBox="0 0 617.38 762.37"><defs><style>.cls-1,.cls-2,.cls-3{stroke-miterlimit:10;}.cls-1{fill:url(#linear-gradient);stroke:url(#linear-gradient-2);}.cls-2{fill:url(#linear-gradient-3);stroke:url(#linear-gradient-4);}.cls-3{fill:url(#linear-gradient-5);stroke:url(#linear-gradient-6);}</style><linearGradient id="linear-gradient" x1="395.37" y1="501.89" x2="395.86" y2="501.89" gradientUnits="userSpaceOnUse"><stop offset="0" stop-color="#2b5876"/><stop offset="1" stop-color="#4e4376"/></linearGradient><linearGradient id="linear-gradient-2" x1="395.85" y1="501.47" x2="395.16" y2="502.67" xlink:href="#linear-gradient"/><linearGradient id="linear-gradient-3" x1="130.14" y1="585.05" x2="487.23" y2="585.05" xlink:href="#linear-gradient"/><linearGradient id="linear-gradient-4" x1="392.18" y1="423.02" x2="205.04" y2="747.16" xlink:href="#linear-gradient"/><linearGradient id="linear-gradient-5" x1="0.5" y1="239.47" x2="616.88" y2="239.47" xlink:href="#linear-gradient"/><linearGradient id="linear-gradient-6" x1="504.19" y1="80.98" x2="113.19" y2="471.98" xlink:href="#linear-gradient"/></defs><title>Asset 2</title><g id="Layer_2" data-name="Layer 2"><g id="Layer_2-2" data-name="Layer 2"><path class="cls-1" d="M395.86,501.56c-.59.74-.71,1,0,0Z"/><path class="cls-2" d="M486.69,529.57c-8-74.67-105.12-121.34-178-121.34s-170,46.67-178,121.34c-6.8,63.47,51.38,227.26,106.67,232a77.52,77.52,0,0,0,49.7-12.46,39.75,39.75,0,0,1,43.26,0A77.52,77.52,0,0,0,380,761.57C435.31,756.83,493.49,593,486.69,529.57ZM418,504.4c-5,9-12.42,17.24-20,24.17-34.87,32-86.67,41.43-131.35,26.57-26.17-8.7-52.81-26.61-67.28-50.74-6.64-11.08,10.66-21.12,17.27-10.09.36.59.74,1.17,1.13,1.74s.9,1.3,1.36,1.94l.76,1a146.66,146.66,0,0,0,13.73,14.54,100.53,100.53,0,0,0,18.95,13.58,107.11,107.11,0,0,0,26.93,11,119.94,119.94,0,0,0,68.82-2.44,101.63,101.63,0,0,0,40.28-25.83q3.21-3.31,6.14-6.87l1.12-1.39h0c.57-.79,1.16-1.56,1.71-2.36a53.23,53.23,0,0,0,3.13-4.87C406.92,483,424.19,493.11,418,504.4Z"/><path class="cls-3" d="M616.69,283.57c-3-45.67-36.24-55.41-36.24-55.41A276,276,0,0,0,308.69.5C172.75.5,59.78,98.78,36.93,228.16h0S3.69,237.9.69,283.57,31.38,349,42.87,350.94h0a275.77,275.77,0,0,0,73.76,123.73,9.39,9.39,0,0,0,14.13-1.2c36.67-51,102.19-85,176.91-85,75.23,0,141.13,34.44,177.65,86a9.44,9.44,0,0,0,14.2,1.3,275.8,275.8,0,0,0,75-124.88h0C586,349,619.69,329.23,616.69,283.57ZM240.83,310.9a42.19,42.19,0,0,0-2.38-3.65c-.32-.45-.65-.89-1-1.34h0c-.23-.27-.44-.55-.67-.82-1.3-1.51-2.59-3-4-4.45-6.24-6.45-13.13-11.66-21.87-14.77-11.14-4-22.73-4.75-34-.91-9.83,3.35-18.24,9.47-25.47,16.11-2.76,2.54-5.4,5.21-7.9,8-1.07,1.2-4.74,5.83-1.68,1.83-3.29,4.3-8.53,6.6-13.68,3.59-4.25-2.49-6.87-9.39-3.59-13.68a109,109,0,0,1,17.09-17.71c10.25-8.48,21.91-15.73,35-18.9,15-3.64,30.81-1.55,44.86,4.52,14.61,6.31,28.65,18.07,36.55,32.09C264.43,312,247.15,322.12,240.83,310.9ZM271,170.23a27,27,0,1,1,27-27A27,27,0,0,1,271,170.23Zm0-75.95a27,27,0,1,1,27-27A27,27,0,0,1,271,94.28Zm75.33-54a27,27,0,1,1-27,27A27,27,0,0,1,346.35,40.28Zm-27,102.95a27,27,0,1,1,27,27A27,27,0,0,1,319.35,143.23ZM475.7,310.9a42.19,42.19,0,0,0-2.38-3.65c-.32-.45-.65-.89-1-1.33h0c-.23-.27-.44-.55-.67-.82-1.3-1.51-2.59-3-4-4.45-6.24-6.45-13.13-11.66-21.87-14.77-11.14-4-22.73-4.75-34-.91-9.83,3.35-18.24,9.47-25.47,16.11-2.76,2.54-5.4,5.21-7.9,8-1.07,1.2-4.74,5.83-1.68,1.83-3.29,4.3-8.53,6.6-13.68,3.59-4.25-2.49-6.87-9.39-3.59-13.68a109,109,0,0,1,17.09-17.71c10.25-8.48,21.91-15.73,35-18.9,15-3.64,30.81-1.55,44.86,4.52C471,275,485.07,286.78,493,300.81,499.3,312,482,322.12,475.7,310.9Z"/></g></g></svg>