<svg xmlns="http://www.w3.org/2000/svg" width="1047" height="1047" viewBox="0 0 1047 1047"><title>Asset 3</title><g id="Layer_2" data-name="Layer 2"><g id="Layer_2-2" data-name="Layer 2"><circle cx="523.5" cy="523.5" r="523.5" style="fill:#de333f"/><path d="M610.67,643.87c-.59.74-.71,1,0,0Z" style="fill:#f7f7f7"/><path d="M701.5,671.88c-8-74.67-105.12-121.34-178-121.34s-170,46.67-178,121.34c-6.8,63.47,51.38,227.26,106.67,232a77.52,77.52,0,0,0,49.7-12.46,39.75,39.75,0,0,1,43.26,0,77.52,77.52,0,0,0,49.7,12.46C650.12,899.14,708.3,735.35,701.5,671.88Zm-68.7-25.17c-5,9-12.42,17.24-20,24.17-34.87,32-86.67,41.43-131.35,26.57-26.17-8.7-52.81-26.61-67.28-50.74-6.64-11.08,10.66-21.12,17.27-10.09.36.59.74,1.17,1.13,1.74s.9,1.3,1.36,1.94l.76,1a146.66,146.66,0,0,0,13.73,14.54,100.53,100.53,0,0,0,18.95,13.58,107.11,107.11,0,0,0,26.93,11A119.94,119.94,0,0,0,563.14,678a101.63,101.63,0,0,0,40.28-25.83q3.21-3.31,6.14-6.87l1.12-1.39h0c.57-.79,1.16-1.56,1.71-2.36a53.23,53.23,0,0,0,3.13-4.87C621.73,625.32,639,635.42,632.8,646.71Z" style="fill:#f7f7f7"/><path d="M831.5,425.88c-3-45.67-36.24-55.41-36.24-55.41A276,276,0,0,0,523.5,142.81c-135.94,0-248.91,98.28-271.76,227.66h0s-33.23,9.74-36.23,55.41,30.69,65.42,42.18,67.37h0A275.77,275.77,0,0,0,331.45,617a9.39,9.39,0,0,0,14.13-1.2c36.67-51,102.19-85,176.91-85,75.23,0,141.13,34.44,177.65,86a9.44,9.44,0,0,0,14.2,1.3,275.8,275.8,0,0,0,75-124.88h0C800.81,491.3,834.5,471.54,831.5,425.88ZM455.64,453.21a42.19,42.19,0,0,0-2.38-3.65c-.32-.45-.65-.89-1-1.34h0c-.23-.27-.44-.55-.67-.82-1.3-1.51-2.59-3-4-4.45-6.24-6.45-13.13-11.66-21.87-14.77-11.14-4-22.73-4.75-34-.91-9.83,3.35-18.24,9.47-25.47,16.11-2.76,2.54-5.4,5.21-7.9,8-1.07,1.2-4.74,5.83-1.68,1.83-3.29,4.3-8.53,6.6-13.68,3.59-4.25-2.49-6.87-9.39-3.59-13.68a109,109,0,0,1,17.09-17.71c10.25-8.48,21.91-15.73,35-18.9,15-3.64,30.81-1.55,44.86,4.52C451,417.34,465,429.1,472.91,443.12,479.24,454.36,462,464.43,455.64,453.21Zm30.19-140.67a27,27,0,1,1,27-27A27,27,0,0,1,485.83,312.55Zm0-75.95a27,27,0,1,1,27-27A27,27,0,0,1,485.83,236.6Zm75.33-54a27,27,0,1,1-27,27A27,27,0,0,1,561.17,182.6Zm-27,102.95a27,27,0,1,1,27,27A27,27,0,0,1,534.17,285.55ZM690.51,453.21a42.19,42.19,0,0,0-2.38-3.65c-.32-.45-.65-.89-1-1.33h0c-.23-.27-.44-.55-.67-.82-1.3-1.51-2.59-3-4-4.45-6.24-6.45-13.13-11.66-21.87-14.77-11.14-4-22.73-4.75-34-.91-9.83,3.35-18.24,9.47-25.47,16.11-2.76,2.54-5.4,5.21-7.9,8-1.07,1.2-4.74,5.83-1.68,1.83-3.29,4.3-8.53,6.6-13.68,3.59-4.25-2.49-6.87-9.39-3.59-13.68a109,109,0,0,1,17.09-17.71c10.25-8.48,21.91-15.73,35-18.9,15-3.64,30.81-1.55,44.86,4.52,14.61,6.31,28.65,18.07,36.55,32.09C714.11,454.36,696.83,464.43,690.51,453.21Z" style="fill:#f7f7f7"/></g></g></svg>