<svg xmlns="http://www.w3.org/2000/svg" viewBox="0 0 616.38 761.39"><title>Layer 2</title><g id="Layer_2" data-name="Layer 2"><g id="Layer_1-2" data-name="Layer 1"><g id="Layer_2-2" data-name="Layer 2"><g id="Layer_2-2-2" data-name="Layer 2-2"><path d="M486.19,529.07c-8-74.67-105.12-121.34-178-121.34s-170,46.67-178,121.34c-6.8,63.47,51.38,227.26,106.67,232a77.51,77.51,0,0,0,49.7-12.46,39.76,39.76,0,0,1,43.26,0,77.49,77.49,0,0,0,49.68,12.46C434.81,756.33,493,592.5,486.19,529.07ZM417.5,503.9c-5,9-12.42,17.24-20,24.17-34.87,32-86.67,41.43-131.35,26.57C240,545.94,213.34,528,198.87,503.9c-6.64-11.08,10.66-21.12,17.27-10.09.36.59.74,1.17,1.13,1.74s.9,1.3,1.36,1.94l.76,1A147.38,147.38,0,0,0,233.12,513a100.63,100.63,0,0,0,18.95,13.58,106.94,106.94,0,0,0,26.93,11,120,120,0,0,0,68.82-2.44,101.66,101.66,0,0,0,40.28-25.83q3.21-3.31,6.14-6.87l1.12-1.39h0c.57-.79,1.16-1.56,1.71-2.36a55.21,55.21,0,0,0,3.13-4.87C406.42,482.5,423.69,492.61,417.5,503.9Z" style="fill:#d85345"/><path d="M616.19,283.07c-3-45.67-36.24-55.41-36.24-55.41A276,276,0,0,0,308.19,0C172.25,0,59.28,98.28,36.43,227.66h0S3.19,237.4.19,283.07s30.69,65.43,42.18,67.37h0a275.71,275.71,0,0,0,73.76,123.73,9.4,9.4,0,0,0,13.28-.19,10.32,10.32,0,0,0,.85-1c36.67-51,102.19-85,176.91-85,75.23,0,141.13,34.44,177.65,86A9.43,9.43,0,0,0,498,476.12a9.3,9.3,0,0,0,1-.85,275.79,275.79,0,0,0,75-124.88h0C585.5,348.5,619.19,328.73,616.19,283.07ZM240.33,310.4a42.31,42.31,0,0,0-2.38-3.65c-.32-.45-.65-.89-1-1.34h0c-.23-.27-.44-.55-.67-.82-1.3-1.51-2.59-3-4-4.45-6.24-6.45-13.13-11.66-21.87-14.77-11.14-4-22.73-4.75-34-.91-9.83,3.35-18.24,9.47-25.47,16.11q-4.14,3.81-7.9,8c-1.07,1.2-4.74,5.83-1.68,1.83-3.29,4.3-8.53,6.6-13.68,3.59-4.25-2.49-6.87-9.39-3.59-13.68a108.9,108.9,0,0,1,17.09-17.71c10.25-8.48,21.91-15.73,35-18.9,15-3.64,30.81-1.55,44.86,4.52,14.61,6.31,28.65,18.07,36.55,32.09C263.93,311.5,246.65,321.62,240.33,310.4ZM270.5,169.73a27,27,0,1,1,27-27,27,27,0,0,1-27,27Zm0-75.95a27,27,0,1,1,27-27,27,27,0,0,1-27,27Zm75.33-54a27,27,0,1,1-27,27,27,27,0,0,1,27-27h0Zm-27,103a27,27,0,1,1,27,27,27,27,0,0,1-27-27ZM475.2,310.4a42.31,42.31,0,0,0-2.38-3.65c-.32-.45-.65-.89-1-1.33h0c-.23-.27-.44-.55-.67-.82-1.3-1.51-2.59-3-4-4.45-6.24-6.45-13.13-11.66-21.87-14.77-11.14-4-22.73-4.75-34-.91-9.83,3.35-18.24,9.47-25.47,16.11q-4.14,3.81-7.9,8c-1.07,1.2-4.74,5.83-1.68,1.83-3.29,4.3-8.53,6.6-13.68,3.59-4.25-2.49-6.87-9.39-3.59-13.68a108.9,108.9,0,0,1,17.09-17.71c10.25-8.48,21.91-15.73,35-18.9,15-3.64,30.81-1.55,44.86,4.52,14.59,6.27,28.66,18,36.59,32.08C498.8,311.5,481.5,321.62,475.2,310.4Z" style="fill:#d85345"/></g></g></g></g></svg>