<svg xmlns="http://www.w3.org/2000/svg" xmlns:xlink="http://www.w3.org/1999/xlink" viewBox="0 0 159.28 116.27"><defs><style>.cls-1{fill:url(#linear-gradient);}.cls-2{fill:url(#linear-gradient-2);}.cls-3{fill:url(#linear-gradient-3);}.cls-4{fill:url(#linear-gradient-4);}</style><linearGradient id="linear-gradient" x1="14.22" y1="72.76" x2="14.22" gradientUnits="userSpaceOnUse"><stop offset="0" stop-color="#5f72bd"/><stop offset="1" stop-color="#9b23ea"/></linearGradient><linearGradient id="linear-gradient-2" x1="51.92" y1="116.27" x2="51.92" y2="44.02" xlink:href="#linear-gradient"/><linearGradient id="linear-gradient-3" x1="93.8" y1="116.27" x2="93.8" y2="44.02" xlink:href="#linear-gradient"/><linearGradient id="linear-gradient-4" x1="137.97" y1="72.35" x2="137.97" y2="44.43" xlink:href="#linear-gradient"/></defs><title>Asset 1</title><g id="Layer_2" data-name="Layer 2"><g id="Layer_1-2" data-name="Layer 1"><path class="cls-1" d="M7.13,70.82a14.61,14.61,0,0,1-5.2-5.2,14.11,14.11,0,0,1,0-14.27,14.13,14.13,0,0,1,5.25-5.15,14.47,14.47,0,0,1,3-1.3,3.16,3.16,0,0,1,4.06,3h0a3.11,3.11,0,0,1-2.22,3,7.59,7.59,0,0,0-3.33,2,7.56,7.56,0,0,0-2.29,5.55,7.73,7.73,0,0,0,2.29,5.6,7.47,7.47,0,0,0,5.55,2.34,7.48,7.48,0,0,0,5.55-2.34,7.73,7.73,0,0,0,2.29-5.6V3.15A3.15,3.15,0,0,1,25.26,0h0a3.15,3.15,0,0,1,3.15,3.15V58.49a14,14,0,0,1-1.89,7.13,14.24,14.24,0,0,1-5.15,5.2,13.72,13.72,0,0,1-7.13,1.94A13.71,13.71,0,0,1,7.13,70.82Z"/><path class="cls-2" d="M41.78,113.1A3.15,3.15,0,0,1,44.93,110h6.94A8,8,0,0,0,59.81,102V58.29a8,8,0,0,0-7.95-7.95,7.48,7.48,0,0,0-5.55,2.34,8.06,8.06,0,0,0,0,11.26,7.59,7.59,0,0,0,3.33,2,3.11,3.11,0,0,1,2.22,3h0a3.16,3.16,0,0,1-4.06,3,14.43,14.43,0,0,1-3-1.3A14.27,14.27,0,1,1,59.05,46a14.54,14.54,0,0,1,5.25,5.2,13.73,13.73,0,0,1,1.94,7.13V102a13.73,13.73,0,0,1-1.94,7.13,14.55,14.55,0,0,1-5.25,5.2,14,14,0,0,1-7.18,1.94H44.93a3.15,3.15,0,0,1-3.15-3.15Z"/><path class="cls-3" d="M79.48,58.29a13.71,13.71,0,0,1,1.94-7.13,14.64,14.64,0,0,1,5.2-5.2A13.72,13.72,0,0,1,93.75,44a14.29,14.29,0,0,1,7.18,1.89,14.25,14.25,0,0,1,0,24.76A14.3,14.3,0,0,1,97.8,72a3.16,3.16,0,0,1-4.05-3v0a3.11,3.11,0,0,1,2.23-3,7.82,7.82,0,0,0,3.38-2,8,8,0,0,0-5.6-13.6,7.48,7.48,0,0,0-5.55,2.34,7.73,7.73,0,0,0-2.29,5.6v54.83a3.15,3.15,0,0,1-3.15,3.15h-.12a3.15,3.15,0,0,1-3.15-3.15Z"/><path class="cls-4" d="M159.07,48.51l-8.74,22a3,3,0,0,1-2.77,1.88h-2.35a3,3,0,0,1-2.78-1.91L138,58.9l-4.56,11.56a3,3,0,0,1-2.77,1.89h-2.27a3,3,0,0,1-2.77-1.88l-8.74-22a3,3,0,0,1,2.77-4.08h0a3,3,0,0,1,2.77,1.89l7.1,18,7.1-18a3,3,0,0,1,2.77-1.89h0a3,3,0,0,1,2.77,4.08L141.58,50a2.4,2.4,0,0,0,0,1.76l4.85,12.47,7.1-17.89a3,3,0,0,1,2.77-1.88h0A3,3,0,0,1,159.07,48.51Z"/></g></g></svg>