<svg xmlns="http://www.w3.org/2000/svg" width="2633.2" height="1047" viewBox="0 0 2633.2 1047"><title>Asset 5</title><g id="Layer_2" data-name="Layer 2"><g id="Layer_1-2" data-name="Layer 1"><path d="M1267.17,637.4a131.21,131.21,0,0,1-46.66-46.66,126.66,126.66,0,0,1,0-128.08,126.82,126.82,0,0,1,47.12-46.2,129.93,129.93,0,0,1,27.1-11.66,28.35,28.35,0,0,1,36.48,27.15h0a27.89,27.89,0,0,1-19.95,27,68.18,68.18,0,0,0-29.91,17.92q-20.58,20.58-20.58,49.86T1281.35,577q20.58,21.06,49.86,21t49.86-21q20.58-21,20.58-50.31V29.85a28.29,28.29,0,0,1,28.29-28.29h.15a28.29,28.29,0,0,1,28.29,28.29V526.7a125.69,125.69,0,0,1-16.92,64,127.86,127.86,0,0,1-46.2,46.66,126.67,126.67,0,0,1-128.09,0Z" style="fill:#de333f"/><path d="M1578.22,1017a28.29,28.29,0,0,1,28.29-28.29h62.29q29.27,0,50.32-21t21-50.31V524.87q0-29.27-21-50.31t-50.32-21q-29.29,0-49.86,21t-20.58,50.31q0,30.19,20.58,50.78a68.18,68.18,0,0,0,29.91,17.92,27.89,27.89,0,0,1,19.95,27h0a28.36,28.36,0,0,1-36.47,27.15A129.57,129.57,0,0,1,1605.21,636a128.09,128.09,0,1,1,128.08-221.86,130.56,130.56,0,0,1,47.12,46.66,123.24,123.24,0,0,1,17.38,64V917.36a123.24,123.24,0,0,1-17.38,64,130.6,130.6,0,0,1-47.12,46.66,125.69,125.69,0,0,1-64.5,17.38H1606.5a28.29,28.29,0,0,1-28.29-28.29Z" style="fill:#de333f"/><path d="M1916.71,524.87a123.13,123.13,0,0,1,17.38-64,131.43,131.43,0,0,1,46.66-46.66,123.21,123.21,0,0,1,64-17.38,128.26,128.26,0,0,1,64.5,16.92,128,128,0,0,1,0,222.32,128.42,128.42,0,0,1-28.12,11.9,28.4,28.4,0,0,1-36.38-27.17v-.2a27.9,27.9,0,0,1,20-27,70.23,70.23,0,0,0,30.32-17.92q21-20.58,21-50.78,0-29.27-21-50.31t-50.32-21q-29.29,0-49.86,21t-20.58,50.31v492.28a28.29,28.29,0,0,1-28.29,28.29H1945a28.29,28.29,0,0,1-28.29-28.29Z" style="fill:#de333f"/><path d="M2631.28,437.09l-78.44,197.17A26.75,26.75,0,0,1,2528,651.13h-21.14a26.75,26.75,0,0,1-25-17.11l-40-103.65-40.9,103.81A26.75,26.75,0,0,1,2376,651.13H2355.7a26.75,26.75,0,0,1-24.86-16.87L2252.4,437.09a26.75,26.75,0,0,1,24.86-36.64h0a26.75,26.75,0,0,1,24.88,16.93l63.76,161.48,63.76-161.48a26.75,26.75,0,0,1,24.89-16.93h0a26.75,26.75,0,0,1,24.87,36.62l-5.21,13.13a21.57,21.57,0,0,0-.05,15.78l43.58,112,63.75-160.6a26.75,26.75,0,0,1,24.87-16.88h0A26.75,26.75,0,0,1,2631.28,437.09Z" style="fill:#de333f"/></g><g id="Layer_2-2" data-name="Layer 2"><circle cx="523.5" cy="523.5" r="523.5" style="fill:#de333f"/><path d="M610.67,643.87c-.59.74-.71,1,0,0Z" style="fill:#f7f7f7"/><path d="M701.5,671.88c-8-74.67-105.12-121.34-178-121.34s-170,46.67-178,121.34c-6.8,63.47,51.38,227.26,106.67,232a77.52,77.52,0,0,0,49.7-12.46,39.75,39.75,0,0,1,43.26,0,77.52,77.52,0,0,0,49.7,12.46C650.12,899.14,708.3,735.35,701.5,671.88Zm-68.7-25.17c-5,9-12.42,17.24-20,24.17-34.87,32-86.67,41.43-131.35,26.57-26.17-8.7-52.81-26.61-67.28-50.74-6.64-11.08,10.66-21.12,17.27-10.09.36.59.74,1.17,1.13,1.74s.9,1.3,1.36,1.94l.76,1a146.66,146.66,0,0,0,13.73,14.54,100.53,100.53,0,0,0,18.95,13.58,107.11,107.11,0,0,0,26.93,11A119.94,119.94,0,0,0,563.14,678a101.63,101.63,0,0,0,40.28-25.83q3.21-3.31,6.14-6.87l1.12-1.39h0c.57-.79,1.16-1.56,1.71-2.36a53.23,53.23,0,0,0,3.13-4.87C621.73,625.32,639,635.42,632.8,646.71Z" style="fill:#f7f7f7"/><path d="M831.5,425.88c-3-45.67-36.24-55.41-36.24-55.41A276,276,0,0,0,523.5,142.81c-135.94,0-248.91,98.28-271.76,227.66h0s-33.23,9.74-36.23,55.41,30.69,65.42,42.18,67.37h0A275.77,275.77,0,0,0,331.45,617a9.39,9.39,0,0,0,14.13-1.2c36.67-51,102.19-85,176.91-85,75.23,0,141.13,34.44,177.65,86a9.44,9.44,0,0,0,14.2,1.3,275.8,275.8,0,0,0,75-124.88h0C800.81,491.3,834.5,471.54,831.5,425.88ZM455.64,453.21a42.19,42.19,0,0,0-2.38-3.65c-.32-.45-.65-.89-1-1.34h0c-.23-.27-.44-.55-.67-.82-1.3-1.51-2.59-3-4-4.45-6.24-6.45-13.13-11.66-21.87-14.77-11.14-4-22.73-4.75-34-.91-9.83,3.35-18.24,9.47-25.47,16.11-2.76,2.54-5.4,5.21-7.9,8-1.07,1.2-4.74,5.83-1.68,1.83-3.29,4.3-8.53,6.6-13.68,3.59-4.25-2.49-6.87-9.39-3.59-13.68a109,109,0,0,1,17.09-17.71c10.25-8.48,21.91-15.73,35-18.9,15-3.64,30.81-1.55,44.86,4.52C451,417.34,465,429.1,472.91,443.12,479.24,454.36,462,464.43,455.64,453.21Zm30.19-140.67a27,27,0,1,1,27-27A27,27,0,0,1,485.83,312.55Zm0-75.95a27,27,0,1,1,27-27A27,27,0,0,1,485.83,236.6Zm75.33-54a27,27,0,1,1-27,27A27,27,0,0,1,561.17,182.6Zm-27,102.95a27,27,0,1,1,27,27A27,27,0,0,1,534.17,285.55ZM690.51,453.21a42.19,42.19,0,0,0-2.38-3.65c-.32-.45-.65-.89-1-1.33h0c-.23-.27-.44-.55-.67-.82-1.3-1.51-2.59-3-4-4.45-6.24-6.45-13.13-11.66-21.87-14.77-11.14-4-22.73-4.75-34-.91-9.83,3.35-18.24,9.47-25.47,16.11-2.76,2.54-5.4,5.21-7.9,8-1.07,1.2-4.74,5.83-1.68,1.83-3.29,4.3-8.53,6.6-13.68,3.59-4.25-2.49-6.87-9.39-3.59-13.68a109,109,0,0,1,17.09-17.71c10.25-8.48,21.91-15.73,35-18.9,15-3.64,30.81-1.55,44.86,4.52,14.61,6.31,28.65,18.07,36.55,32.09C714.11,454.36,696.83,464.43,690.51,453.21Z" style="fill:#f7f7f7"/></g></g></svg>