<?xml version="1.0" standalone="no"?><!-- Generator: Gravit.io --><svg xmlns="http://www.w3.org/2000/svg" xmlns:xlink="http://www.w3.org/1999/xlink" style="isolation:isolate" viewBox="0 0 300 150" width="300" height="150"><defs><clipPath id="_clipPath_EiqvP1hEuoAuWeyl2MKtiAhQi46LQB5t"><rect width="300" height="150"/></clipPath></defs><g clip-path="url(#_clipPath_EiqvP1hEuoAuWeyl2MKtiAhQi46LQB5t)"><g id="dgpw"><g id="Layer_1-2"><linearGradient id="_lgradient_0" x1="50.01015051061027%" y1="1.470844914265945e-30%" x2="50.01015051061025%" y2="99.99931712319639%"><stop offset="0%" stop-opacity="1" style="stop-color:rgb(43,88,118)"/><stop offset="100%" stop-opacity="1" style="stop-color:rgb(78,67,118)"/></linearGradient><path d=" M 8.783 87.255 C 6.457 85.888 4.518 83.949 3.151 81.623 C 0.351 76.847 0.351 70.93 3.151 66.155 C 4.521 63.826 6.484 61.902 8.838 60.577 C 9.872 59.986 10.97 59.514 12.11 59.17 C 13.148 58.857 14.273 59.054 15.142 59.701 C 16.012 60.348 16.524 61.369 16.522 62.453 L 16.522 62.453 C 16.534 63.956 15.548 65.285 14.106 65.71 C 12.738 66.107 11.497 66.852 10.504 67.873 C 8.88 69.45 7.981 71.628 8.018 73.891 C 7.986 76.169 8.884 78.362 10.504 79.964 C 12.064 81.619 14.248 82.541 16.522 82.507 C 18.796 82.542 20.981 81.619 22.542 79.964 C 24.162 78.362 25.059 76.169 25.027 73.891 L 25.027 13.914 C 25.027 12.032 26.55 10.505 28.432 10.5 L 28.449 10.5 C 29.355 10.5 30.223 10.86 30.863 11.5 C 31.503 12.14 31.863 13.008 31.863 13.914 L 31.863 73.891 C 31.885 76.604 31.18 79.273 29.82 81.621 C 28.483 83.952 26.561 85.893 24.243 87.253 C 21.91 88.646 19.239 89.372 16.522 89.353 C 13.799 89.376 11.122 88.65 8.783 87.255 L 8.783 87.255 Z " fill="url(#_lgradient_0)"/><linearGradient id="_lgradient_1" x1="0%" y1="50%" x2="6.123233995736766e-15%" y2="150%"><stop offset="100%" stop-opacity="1" style="stop-color:rgb(43,88,118)"/><stop offset="100%" stop-opacity="1" style="stop-color:rgb(43,88,118)"/></linearGradient><path d=" M 46.331 133.078 C 46.331 132.172 46.691 131.304 47.331 130.664 C 47.971 130.024 48.839 129.664 49.745 129.664 L 57.263 129.664 C 62.007 129.632 65.844 125.794 65.876 121.05 L 65.876 73.67 C 65.844 68.927 62.007 65.089 57.263 65.057 C 54.989 65.023 52.806 65.946 51.245 67.6 C 49.626 69.202 48.728 71.395 48.76 73.673 Q 48.76 77.317 51.245 79.803 C 52.238 80.823 53.48 81.569 54.847 81.966 C 56.286 82.394 57.268 83.722 57.254 85.223 L 57.254 85.223 C 57.254 86.304 56.743 87.322 55.876 87.968 C 55.009 88.613 53.887 88.811 52.851 88.501 C 51.711 88.158 50.613 87.686 49.58 87.094 C 44.65 84.404 41.565 79.254 41.521 73.638 C 41.476 68.022 44.479 62.824 49.365 60.056 C 54.252 57.288 60.255 57.387 65.048 60.313 C 67.397 61.669 69.356 63.609 70.735 65.945 C 72.128 68.281 72.854 70.955 72.833 73.675 L 72.833 121.048 C 72.854 123.768 72.128 126.442 70.735 128.778 C 69.355 131.115 67.396 133.055 65.046 134.413 C 62.687 135.801 59.998 136.526 57.261 136.51 L 49.745 136.51 C 47.86 136.51 46.331 134.982 46.331 133.097 L 46.331 133.078 Z " fill="url(#_lgradient_1)"/><linearGradient id="_lgradient_2" x1="0%" y1="50%" x2="6.123233995736766e-15%" y2="150%"><stop offset="100%" stop-opacity="1" style="stop-color:rgb(43,88,118)"/><stop offset="100%" stop-opacity="1" style="stop-color:rgb(43,88,118)"/></linearGradient><path d=" M 87.191 73.67 C 87.17 70.95 87.896 68.277 89.289 65.94 C 90.657 63.614 92.597 61.676 94.923 60.308 C 97.26 58.915 99.933 58.19 102.653 58.211 C 105.383 58.193 108.069 58.898 110.438 60.253 C 115.256 63.003 118.23 68.124 118.23 73.672 C 118.23 79.219 115.256 84.34 110.438 87.09 C 109.369 87.702 108.231 88.184 107.048 88.526 C 106.013 88.83 104.896 88.629 104.032 87.983 C 103.169 87.338 102.658 86.324 102.655 85.246 L 102.655 85.221 C 102.642 83.718 103.627 82.388 105.069 81.962 C 106.453 81.561 107.713 80.813 108.728 79.79 Q 111.271 77.304 111.271 73.66 C 111.239 68.916 107.401 65.079 102.657 65.046 C 100.384 65.012 98.2 65.935 96.64 67.589 C 95.02 69.192 94.123 71.384 94.154 73.662 L 94.154 133.095 C 94.154 134 93.794 134.868 93.154 135.508 C 92.514 136.149 91.646 136.508 90.74 136.508 L 90.611 136.508 C 89.706 136.508 88.837 136.149 88.197 135.508 C 87.557 134.868 87.197 134 87.197 133.095 L 87.191 73.67 Z " fill="url(#_lgradient_2)"/><linearGradient id="_lgradient_3" x1="0%" y1="50%" x2="6.123233995736766e-15%" y2="150%"><stop offset="100%" stop-opacity="1" style="stop-color:rgb(43,88,118)"/><stop offset="100%" stop-opacity="1" style="stop-color:rgb(43,88,118)"/></linearGradient><path d=" M 173.45 63.074 L 163.982 86.876 C 163.49 88.101 162.302 88.903 160.982 88.902 L 158.439 88.902 C 157.104 88.902 155.907 88.081 155.426 86.836 L 150.593 74.334 L 145.655 86.865 C 145.165 88.1 143.968 88.907 142.64 88.902 L 140.182 88.902 C 138.859 88.901 137.67 88.094 137.182 86.865 L 127.714 63.074 C 127.318 62.079 127.44 60.952 128.041 60.066 C 128.642 59.18 129.644 58.649 130.715 58.649 L 130.715 58.649 C 132.041 58.649 133.232 59.459 133.719 60.692 L 141.415 80.186 L 149.111 60.692 C 149.599 59.459 150.79 58.649 152.116 58.649 L 152.116 58.649 C 153.187 58.647 154.19 59.177 154.793 60.063 C 155.395 60.949 155.519 62.076 155.123 63.071 L 154.487 64.656 C 154.246 65.269 154.246 65.951 154.487 66.563 L 159.749 80.078 L 167.443 60.692 C 167.931 59.461 169.121 58.653 170.445 58.653 L 170.445 58.653 C 171.516 58.652 172.517 59.182 173.119 60.067 C 173.721 60.953 173.845 62.079 173.45 63.074 Z " fill="url(#_lgradient_3)"/></g></g><g id="monky"><g id="Layer_2-2"><linearGradient id="_lgradient_4" x1="0%" y1="50%" x2="100%" y2="50%"><stop offset="100%" stop-opacity="1" style="stop-color:rgb(43,88,118)"/><stop offset="100%" stop-opacity="1" style="stop-color:rgb(43,88,118)"/></linearGradient><linearGradient id="_lgradient_5" x1="0%" y1="50%" x2="50.36144579420754%" y2="-36.392851426012655%"><stop offset="0%" stop-opacity="1" style="stop-color:rgb(43,88,118)"/></linearGradient><path d=" M 276.892 100.138 C 275.537 87.487 259.082 79.58 246.734 79.58 C 234.386 79.58 217.932 87.487 216.576 100.138 C 215.424 110.892 225.281 138.642 234.649 139.445 C 237.614 139.717 240.583 138.972 243.069 137.334 C 245.299 135.889 248.17 135.889 250.399 137.334 C 252.884 138.971 255.852 139.716 258.816 139.445 C 268.187 138.642 278.044 110.885 276.892 100.138 Z  M 265.254 95.874 C 264.407 97.399 263.15 98.795 261.866 99.969 C 255.958 105.391 247.181 106.988 239.611 104.471 C 235.177 102.997 230.664 99.962 228.212 95.874 C 227.087 93.997 230.018 92.296 231.138 94.165 C 231.199 94.264 231.264 94.363 231.33 94.459 C 231.396 94.556 231.482 94.68 231.56 94.788 L 231.689 94.957 C 232.407 95.831 233.185 96.654 234.015 97.421 C 234.993 98.31 236.07 99.082 237.226 99.722 C 238.655 100.548 240.19 101.175 241.788 101.585 C 245.632 102.59 249.686 102.447 253.448 101.172 C 256.039 100.277 258.379 98.777 260.273 96.796 Q 260.817 96.235 261.313 95.632 L 261.503 95.396 L 261.503 95.396 C 261.6 95.262 261.699 95.132 261.793 94.996 C 261.984 94.731 262.161 94.456 262.323 94.171 C 263.377 92.248 266.303 93.961 265.254 95.874 Z " fill="url(#_lgradient_4)" vector-effect="non-scaling-stroke" stroke-width="0.409" stroke="url(#_lgradient_5)" stroke-linejoin="miter" stroke-linecap="butt" stroke-miterlimit="10"/><linearGradient id="_lgradient_6" x1="0%" y1="50%" x2="100%" y2="50%"><stop offset="50%" stop-opacity="1" style="stop-color:rgb(43,88,118)"/><stop offset="100%" stop-opacity="1" style="stop-color:rgb(43,88,118)"/></linearGradient><linearGradient id="_lgradient_7" x1="0%" y1="50%" x2="79.01959593773681%" y2="-11.28542614551038%"><stop offset="0%" stop-opacity="1" style="stop-color:rgb(68,73,118)"/><stop offset="100%" stop-opacity="1" style="stop-color:rgb(78,67,118)"/></linearGradient><path d=" M 298.917 58.46 C 298.409 50.722 292.777 49.072 292.777 49.072 C 288.807 26.754 269.402 10.498 246.734 10.5 C 223.702 10.5 204.562 27.151 200.691 49.072 L 200.691 49.072 C 200.691 49.072 195.059 50.722 194.551 58.46 C 194.551 58.46 199.75 69.545 201.697 69.874 L 201.697 69.874 C 203.932 77.845 208.245 85.08 214.194 90.837 C 214.525 91.158 214.978 91.32 215.437 91.281 C 215.897 91.242 216.316 91.006 216.588 90.634 C 222.801 81.993 233.902 76.232 246.561 76.232 C 259.307 76.232 270.472 82.067 276.66 90.803 C 276.93 91.179 277.351 91.42 277.813 91.462 C 278.274 91.504 278.731 91.344 279.066 91.023 C 285.121 85.237 289.51 77.929 291.773 69.865 L 291.773 69.865 C 293.718 69.545 299.426 66.196 298.917 58.46 Z  M 235.237 63.09 C 235.113 62.877 234.979 62.671 234.834 62.472 C 234.779 62.395 234.723 62.321 234.664 62.245 L 234.664 62.245 C 234.625 62.199 234.59 62.151 234.551 62.106 C 234.33 61.85 234.112 61.597 233.873 61.352 C 232.816 60.259 231.648 59.376 230.168 58.849 C 228.28 58.172 226.316 58.044 224.407 58.695 C 222.742 59.263 221.317 60.3 220.092 61.425 C 219.624 61.855 219.177 62.307 218.753 62.78 C 218.572 62.983 217.95 63.768 218.469 63.09 C 217.911 63.819 217.023 64.208 216.151 63.698 C 215.431 63.276 214.987 62.107 215.543 61.38 C 216.391 60.274 217.363 59.268 218.438 58.38 C 220.175 56.943 222.15 55.715 224.368 55.178 C 226.909 54.561 229.588 54.915 231.969 55.944 C 234.444 57.013 236.823 59.005 238.161 61.38 C 239.235 63.276 236.308 64.991 235.237 63.09 Z  M 240.348 39.257 C 237.822 39.257 235.774 37.209 235.774 34.682 C 235.774 32.156 237.822 30.108 240.348 30.108 C 242.875 30.108 244.923 32.156 244.923 34.682 C 244.923 37.209 242.875 39.257 240.348 39.257 Z  M 240.348 26.389 C 237.822 26.389 235.774 24.341 235.774 21.814 C 235.774 19.288 237.822 17.24 240.348 17.24 C 242.875 17.24 244.923 19.288 244.923 21.814 C 244.923 23.028 244.441 24.191 243.583 25.049 C 242.725 25.907 241.562 26.389 240.348 26.389 L 240.348 26.389 Z  M 253.111 17.24 C 255.638 17.24 257.686 19.288 257.686 21.814 C 257.686 24.341 255.638 26.389 253.111 26.389 C 250.585 26.389 248.537 24.341 248.537 21.814 C 248.537 20.6 249.019 19.436 249.878 18.578 C 250.736 17.72 251.901 17.239 253.115 17.24 L 253.111 17.24 Z  M 248.537 34.682 C 248.537 32.156 250.585 30.108 253.111 30.108 C 255.638 30.108 257.686 32.156 257.686 34.682 C 257.686 37.209 255.638 39.257 253.111 39.257 C 250.586 39.255 248.54 37.207 248.54 34.682 L 248.537 34.682 Z  M 275.03 63.09 C 274.906 62.877 274.772 62.671 274.627 62.472 C 274.573 62.395 274.517 62.321 274.457 62.246 L 274.457 62.246 C 274.418 62.2 274.383 62.153 274.344 62.107 C 274.124 61.851 273.905 61.599 273.666 61.353 C 272.609 60.261 271.442 59.378 269.961 58.851 C 268.073 58.173 266.11 58.046 264.2 58.697 C 262.535 59.264 261.11 60.301 259.885 61.426 C 259.417 61.857 258.97 62.309 258.546 62.782 C 258.365 62.985 257.743 63.769 258.262 63.092 C 257.704 63.82 256.817 64.21 255.944 63.7 C 255.224 63.278 254.78 62.109 255.336 61.382 C 256.185 60.276 257.156 59.269 258.231 58.382 C 259.968 56.945 261.943 55.717 264.161 55.179 C 266.703 54.563 269.381 54.917 271.762 55.945 C 274.234 57.008 276.618 59.003 277.961 61.38 C 279.028 63.276 276.097 64.991 275.03 63.09 Z " fill="url(#_lgradient_6)" vector-effect="non-scaling-stroke" stroke-width="0.409" stroke="url(#_lgradient_7)" stroke-linejoin="miter" stroke-linecap="butt" stroke-miterlimit="10"/></g></g></g></svg>