<?xml version="1.0" standalone="no"?><svg xmlns="http://www.w3.org/2000/svg" xmlns:xlink="http://www.w3.org/1999/xlink" style="isolation:isolate" viewBox="0 0 1920 1080" width="1920" height="1080"><defs><clipPath id="_clipPath_cndssYb5DUTHfLza9oB1ubTI3SkSd6bN"><rect width="1920" height="1080"/></clipPath></defs><g clip-path="url(#_clipPath_cndssYb5DUTHfLza9oB1ubTI3SkSd6bN)"><linearGradient id="_lgradient_0" x1="50.02082294264334%" y1="100.04152119700747%" x2="50.02082294264335%" y2="4.440892098500626e-14%"><stop offset="0%" stop-opacity="1" style="stop-color:rgb(82,169,195)"/><stop offset="100%" stop-opacity="1" style="stop-color:rgb(159,229,213)"/></linearGradient><path d=" M 156.7 263.2 C 156.7 241.068 174.668 223.1 196.8 223.1 C 218.932 223.1 236.9 241.068 236.9 263.2 C 236.9 285.332 218.932 303.3 196.8 303.3 C 174.668 303.3 156.7 285.332 156.7 263.2 Z " fill="url(#_lgradient_0)"/><linearGradient id="_lgradient_1" x1="50%" y1="100.00000000000009%" x2="50.000000000000014%" y2="-0.008304498269851024%"><stop offset="0%" stop-opacity="1" style="stop-color:rgb(174,204,239)"/><stop offset="100%" stop-opacity="1" style="stop-color:rgb(159,229,213)"/></linearGradient><path d=" M 1617 706.8 C 1617 674.899 1642.899 649 1674.8 649 C 1706.701 649 1732.6 674.899 1732.6 706.8 C 1732.6 738.701 1706.701 764.6 1674.8 764.6 C 1642.899 764.6 1617 738.701 1617 706.8 Z " fill="url(#_lgradient_1)"/><linearGradient id="_lgradient_2" x1="49.98517857142861%" y1="100.02982142857135%" x2="49.98517857142862%" y2="0%"><stop offset="0%" stop-opacity="1" style="stop-color:rgb(153,150,239)"/><stop offset="100%" stop-opacity="1" style="stop-color:rgb(246,198,214)"/></linearGradient><path d=" M 235 615.9 C 235 600.446 247.546 587.9 263 587.9 C 278.454 587.9 291 600.446 291 615.9 C 291 631.354 278.454 643.9 263 643.9 C 247.546 643.9 235 631.354 235 615.9 Z " fill="url(#_lgradient_2)"/><linearGradient id="_lgradient_3" x1="24.99566473988395%" y1="93.30838150289047%" x2="75.00375722543353%" y2="6.691618497110063%"><stop offset="0%" stop-opacity="1" style="stop-color:rgb(250,172,168)"/><stop offset="100%" stop-opacity="1" style="stop-color:rgb(221,214,243)"/></linearGradient><path d=" M 1738.7 320.6 C 1738.7 311.052 1746.452 303.3 1756 303.3 C 1765.548 303.3 1773.3 311.052 1773.3 320.6 C 1773.3 330.148 1765.548 337.9 1756 337.9 C 1746.452 337.9 1738.7 330.148 1738.7 320.6 Z " fill="url(#_lgradient_3)"/></g></svg>
